<svg xmlns="http://www.w3.org/2000/svg" width="730.3046875px" height="470px" class="sequence simple"><desc>UML DEMO</desc><defs><marker viewBox="0 0 5 5" markerWidth="5" markerHeight="5" orient="auto" refX="5" refY="2.5" id="markerArrowBlock"><path d="M 0 0 L 5 2.5 L 0 5 z"/></marker><marker viewBox="0 0 9.6 16" markerWidth="4" markerHeight="16" orient="auto" refX="9.6" refY="8" id="markerArrowOpen"><path d="M 9.6,8 1.92,16 0,13.7 5.76,8 0,2.286 1.92,0 9.6,8 z"/></marker></defs><g class="title"><rect x="10" y="10" width="86.8125" height="28" stroke="#000000" fill="#ffffff" style="stroke-width: 2;"/><text x="15" y="29.5" style="font-size: 16px; font-family: &quot;Andale Mono&quot;, monospace;"><tspan x="15">UML DEMO</tspan></text></g><g class="actor"><rect x="53.0078125" y="48" width="77.609375" height="38" stroke="#000000" fill="#ffffff" style="stroke-width: 2;"/><text x="63.0078125" y="72.5" style="font-size: 16px; font-family: &quot;Andale Mono&quot;, monospace;"><tspan x="63.0078125">client</tspan></text></g><g class="actor"><rect x="53.0078125" y="412" width="77.609375" height="38" stroke="#000000" fill="#ffffff" style="stroke-width: 2;"/><text x="63.0078125" y="436.5" style="font-size: 16px; font-family: &quot;Andale Mono&quot;, monospace;"><tspan x="63.0078125">client</tspan></text></g><line x1="91.8125" x2="91.8125" y1="86" y2="412" stroke="#000000" fill="none" style="stroke-width: 2;"/><g class="actor"><rect x="302.2578125" y="48" width="77.609375" height="38" stroke="#000000" fill="#ffffff" style="stroke-width: 2;"/><text x="312.2578125" y="72.5" style="font-size: 16px; font-family: &quot;Andale Mono&quot;, monospace;"><tspan x="312.2578125">server</tspan></text></g><g class="actor"><rect x="302.2578125" y="412" width="77.609375" height="38" stroke="#000000" fill="#ffffff" style="stroke-width: 2;"/><text x="312.2578125" y="436.5" style="font-size: 16px; font-family: &quot;Andale Mono&quot;, monospace;"><tspan x="312.2578125">server</tspan></text></g><line x1="341.0625" x2="341.0625" y1="86" y2="412" stroke="#000000" fill="none" style="stroke-width: 2;"/><g class="actor"><rect x="399.8671875" y="48" width="77.609375" height="38" stroke="#000000" fill="#ffffff" style="stroke-width: 2;"/><text x="409.8671875" y="72.5" style="font-size: 16px; font-family: &quot;Andale Mono&quot;, monospace;"><tspan x="409.8671875">weixin</tspan></text></g><g class="actor"><rect x="399.8671875" y="412" width="77.609375" height="38" stroke="#000000" fill="#ffffff" style="stroke-width: 2;"/><text x="409.8671875" y="436.5" style="font-size: 16px; font-family: &quot;Andale Mono&quot;, monospace;"><tspan x="409.8671875">weixin</tspan></text></g><line x1="438.671875" x2="438.671875" y1="86" y2="412" stroke="#000000" fill="none" style="stroke-width: 2;"/><g class="actor"><rect x="661.1015625" y="48" width="39.203125" height="38" stroke="#000000" fill="#ffffff" style="stroke-width: 2;"/><text x="671.1015625" y="72.5" style="font-size: 16px; font-family: &quot;Andale Mono&quot;, monospace;"><tspan x="671.1015625">mp</tspan></text></g><g class="actor"><rect x="661.1015625" y="412" width="39.203125" height="38" stroke="#000000" fill="#ffffff" style="stroke-width: 2;"/><text x="671.1015625" y="436.5" style="font-size: 16px; font-family: &quot;Andale Mono&quot;, monospace;"><tspan x="671.1015625">mp</tspan></text></g><line x1="680.703125" x2="680.703125" y1="86" y2="412" stroke="#000000" fill="none" style="stroke-width: 2;"/><g class="signal"><text x="182.828125" y="116.5" style="font-size: 16px; font-family: &quot;Andale Mono&quot;, monospace;"><tspan x="182.828125">request</tspan></text><line x1="91.8125" x2="341.0625" y1="124" y2="124" stroke="#000000" fill="none" style="stroke-width: 2; stroke-dasharray: 6, 2; marker-end: url(&quot;#markerArrowOpen&quot;);"/></g><g class="signal"><text x="356.2578125" y="154.5" style="font-size: 16px; font-family: &quot;Andale Mono&quot;, monospace;"><tspan x="356.2578125">request</tspan></text><line x1="341.0625" x2="438.671875" y1="162" y2="162" stroke="#000000" fill="none" style="stroke-width: 2; marker-end: url(&quot;#markerArrowBlock&quot;);"/></g><g class="signal"><text x="351.4609375" y="192.5" style="font-size: 16px; font-family: &quot;Andale Mono&quot;, monospace;"><tspan x="351.4609375">response</tspan></text><line x1="438.671875" x2="341.0625" y1="200" y2="200" stroke="#000000" fill="none" style="stroke-width: 2; marker-end: url(&quot;#markerArrowBlock&quot;);"/></g><g class="note"><rect x="128.625" y="220" width="192.4375" height="28" stroke="#000000" fill="#ffffff" style="stroke-width: 2;"/><text x="133.625" y="239.5" style="font-size: 16px; font-family: &quot;Andale Mono&quot;, monospace;"><tspan x="133.625">Note left of server</tspan></text></g><g class="note"><rect x="458.671875" y="268" width="202.03125" height="28" stroke="#000000" fill="#ffffff" style="stroke-width: 2;"/><text x="463.671875" y="287.5" style="font-size: 16px; font-family: &quot;Andale Mono&quot;, monospace;"><tspan x="463.671875">Note right of weixin</tspan></text></g><g class="note"><rect x="10" y="316" width="163.625" height="28" stroke="#000000" fill="#ffffff" style="stroke-width: 2;"/><text x="15" y="335.5" style="font-size: 16px; font-family: &quot;Andale Mono&quot;, monospace;"><tspan x="15">Note over client</tspan></text></g><g class="note"><rect x="81.8125" y="364" width="269.25" height="28" stroke="#000000" fill="#ffffff" style="stroke-width: 2;"/><text x="86.8125" y="383.5" style="font-size: 16px; font-family: &quot;Andale Mono&quot;, monospace;"><tspan x="86.8125">Note over client and server</tspan></text></g></svg>